<svg xmlns="http://www.w3.org/2000/svg" width="27" height="24" fill="none" viewBox="0 0 27 24">
  <path fill="#fff" fill-rule="evenodd" d="M10.221 15.466a1 1 0 0 0 1.1.653l12.766-2.036a1 1 0 0 0 .824-.792l1.354-6.792a1 1 0 0 0-.964-1.196l-17.36-.28a1 1 0 0 0-.958 1.335l3.238 9.109Zm.605 7.894a2.326 2.326 0 1 0 0-4.653 2.326 2.326 0 0 0 0 4.652Zm11.631 0a2.326 2.326 0 1 0 0-4.653 2.326 2.326 0 0 0 0 4.652ZM4 2c1.933 0 3.5-.224 3.5-.5S5.933 1 4 1s-3.5.224-3.5.5S2.067 2 4 2Z" clip-rule="evenodd"/>
  <path fill="#fff" fill-rule="evenodd" d="M1.454.651C2.118.557 3.017.5 4 .5c.983 0 1.882.057 2.546.151.327.047.619.106.839.18.107.037.227.086.33.158.085.06.285.224.285.511 0 .287-.2.451-.285.51a1.317 1.317 0 0 1-.33.158c-.22.075-.512.134-.84.18C5.883 2.444 4.984 2.5 4 2.5c-.983 0-1.882-.057-2.546-.151a4.934 4.934 0 0 1-.839-.18 1.317 1.317 0 0 1-.33-.158C.2 1.95 0 1.787 0 1.5c0-.287.2-.451.285-.51a1.25 1.25 0 0 1 .33-.159c.22-.075.512-.134.84-.18Z" clip-rule="evenodd"/>
</svg>
