<svg xmlns="http://www.w3.org/2000/svg" width="24" height="15" fill="none" viewBox="0 0 24 15">
  <path fill="#6C6BBD" fill-rule="evenodd" d="M14.888 13.002H8.764V1.995h6.124v11.007Z" clip-rule="evenodd"/>
  <path fill="#EB001B" fill-rule="evenodd" d="M9.151 7.5a6.989 6.989 0 0 1 2.674-5.503A7 7 0 0 0 .5 7.5a7 7 0 0 0 11.325 5.504A6.989 6.989 0 0 1 9.15 7.5Z" clip-rule="evenodd"/>
  <path fill="#0099DF" fill-rule="evenodd" d="M23.15 7.5a7 7 0 0 1-11.326 5.504A6.987 6.987 0 0 0 14.498 7.5a6.987 6.987 0 0 0-2.674-5.503A7 7 0 0 1 23.15 7.5" clip-rule="evenodd"/>
</svg>
