<svg xmlns="http://www.w3.org/2000/svg" width="32" height="11" fill="none" viewBox="0 0 32 11">
  <path fill="#1434CB" fill-rule="evenodd" d="M16.47 3.678c-.017 1.408 1.255 2.193 2.214 2.66.985.48 1.315.787 1.312 1.215-.008.656-.786.946-1.514.957-1.27.02-2.01-.343-2.596-.617l-.458 2.141c.589.272 1.68.508 2.811.519 2.656 0 4.393-1.311 4.403-3.344.01-2.579-3.568-2.722-3.544-3.875.009-.35.342-.722 1.073-.817.362-.048 1.361-.085 2.493.437L23.11.882a6.776 6.776 0 0 0-2.366-.434c-2.5 0-4.258 1.328-4.272 3.23ZM27.38.626c-.485 0-.894.283-1.076.717l-3.794 9.058h2.654l.528-1.46h3.243l.306 1.46h2.339L29.539.626h-2.16Zm.37 2.64.767 3.67h-2.098l1.332-3.67ZM13.255.627l-2.092 9.775h2.528l2.09-9.776h-2.527Zm-3.741 0L6.88 7.28 5.816 1.622C5.69.991 5.198.626 4.65.626H.347L.287.91c.883.192 1.887.5 2.495.832.372.202.478.378.6.858L5.4 10.4h2.67L12.168.627H9.513Z" clip-rule="evenodd"/>
</svg>
